<?xml version="1.0" encoding="UTF-8" standalone="no"?>
<!-- Created with Inkscape (http://www.inkscape.org/) -->

<svg
   xmlns:dc="http://purl.org/dc/elements/1.1/"
   xmlns:cc="http://creativecommons.org/ns#"
   xmlns:rdf="http://www.w3.org/1999/02/22-rdf-syntax-ns#"
   xmlns:svg="http://www.w3.org/2000/svg"
   xmlns="http://www.w3.org/2000/svg"
   xmlns:sodipodi="http://sodipodi.sourceforge.net/DTD/sodipodi-0.dtd"
   xmlns:inkscape="http://www.inkscape.org/namespaces/inkscape"
   width="240mm"
   height="430mm"
   viewBox="0 0 240 430"
   version="1.1"
   id="svg18"
   inkscape:version="0.92.3 (2405546, 2018-03-11)"
   sodipodi:docname="1_width_200mm.svg">
  <sodipodi:namedview
     id="base"
     pagecolor="#ffffff"
     bordercolor="#666666"
     borderopacity="1.0"
     inkscape:pageopacity="0.0"
     inkscape:pageshadow="2"
     inkscape:zoom="0.35"
     inkscape:cx="-432.88898"
     inkscape:cy="902.85713"
     inkscape:document-units="mm"
     inkscape:current-layer="layer1"
     showgrid="false"
     inkscape:window-width="1853"
     inkscape:window-height="1025"
     inkscape:window-x="67"
     inkscape:window-y="27"
     inkscape:window-maximized="1" />
  <defs
     id="defs12" />
  <metadata
     id="metadata15">
    <rdf:RDF>
      <cc:Work
         rdf:about="">
        <dc:format>image/svg+xml</dc:format>
        <dc:type
           rdf:resource="http://purl.org/dc/dcmitype/StillImage" />
        <dc:title />
      </cc:Work>
    </rdf:RDF>
  </metadata>
  <g
     transform="translate(0,133)"
     id="layer1"
     inkscape:groupmode="layer"
     inkscape:label="Layer 1">
    <g
       id="g14"
       transform="matrix(10,0,0,10,-15,122)"
       inkscape:label="Hershey Text">
      <path
         id="path12"
         transform="translate(13)"
         style="fill:none;stroke:#000000"
         d="M 5,-4 4,-6 2,-7 h -3 l -2,1 -1,1 -1,3 v 3 l 1,2 2,1 H 1 L 3,3 4,1 M 5,-7 4,1 v 2 l 2,1 h 2 l 2,-2 1,-3 V -3 L 10,-6 9,-8 7,-10 5,-11 2,-12 h -3 l -3,1 -2,1 -2,2 -1,2 -1,3 v 3 l 1,3 1,2 2,2 2,1 3,1 H 2 L 5,8 7,7 8,6"
         inkscape:connector-curvature="0" />
    </g>
  </g>
</svg>
