<?xml version="1.0" encoding="UTF-8" standalone="no"?>
<!-- Created with Inkscape (http://www.inkscape.org/) -->

<svg
   xmlns:dc="http://purl.org/dc/elements/1.1/"
   xmlns:cc="http://creativecommons.org/ns#"
   xmlns:rdf="http://www.w3.org/1999/02/22-rdf-syntax-ns#"
   xmlns:svg="http://www.w3.org/2000/svg"
   xmlns="http://www.w3.org/2000/svg"
   xmlns:sodipodi="http://sodipodi.sourceforge.net/DTD/sodipodi-0.dtd"
   xmlns:inkscape="http://www.inkscape.org/namespaces/inkscape"
   sodipodi:docname="{_width_200mm_h.svg"
   inkscape:version="0.92.3 (2405546, 2018-03-11)"
   id="svg18"
   version="1.1"
   viewBox="0 0 240 430"
   height="430mm"
   width="240mm">
  <sodipodi:namedview
     inkscape:window-maximized="1"
     inkscape:window-y="27"
     inkscape:window-x="67"
     inkscape:window-height="1025"
     inkscape:window-width="1853"
     showgrid="false"
     inkscape:current-layer="layer1"
     inkscape:document-units="mm"
     inkscape:cy="950.89632"
     inkscape:cx="-1270.3294"
     inkscape:zoom="0.12374369"
     inkscape:pageshadow="2"
     inkscape:pageopacity="0.0"
     borderopacity="1.0"
     bordercolor="#666666"
     pagecolor="#ffffff"
     id="base" />
  <defs
     id="defs12" />
  <metadata
     id="metadata15">
    <rdf:RDF>
      <cc:Work
         rdf:about="">
        <dc:format>image/svg+xml</dc:format>
        <dc:type
           rdf:resource="http://purl.org/dc/dcmitype/StillImage" />
        <dc:title />
      </cc:Work>
    </rdf:RDF>
  </metadata>
  <g
     inkscape:label="Layer 1"
     inkscape:groupmode="layer"
     id="layer1"
     transform="translate(0,133)">
    <g
       id="g61"
       transform="matrix(7.2960687,0,0,7.2960687,74.972978,77)"
       inkscape:label="Hershey Text">
      <path
         id="path59"
         transform="translate(7)"
         style="fill:none;stroke:#000000"
         d="m 2,-16 -2,1 -1,1 -1,2 v 2 l 1,2 1,1 1,2 v 2 l -2,2 m 1,-14 -1,2 v 2 l 1,2 1,1 1,2 v 2 L 1,-2 -3,0 1,2 2,4 V 6 L 1,8 0,9 -1,11 v 2 l 1,2 M -1,1 1,3 v 2 l -1,2 -1,1 -1,2 v 2 l 1,2 1,1 2,1"
         inkscape:connector-curvature="0" />
    </g>
  </g>
</svg>
